<svg width="25" height="25" viewBox="0 0 25 25" fill="none" xmlns="http://www.w3.org/2000/svg">
<path d="M10.5503 11.1064L3.47923 18.1775C2.69818 18.9586 2.69818 20.2249 3.47923 21.0059V21.0059C4.26027 21.787 5.5266 21.787 6.30765 21.0059L13.3787 13.9349" stroke="black" stroke-width="1.5" stroke-linecap="round" stroke-linejoin="round"/>
<path d="M17.6928 14.2989L21.5711 18.1772C22.3521 18.9583 22.3521 20.2246 21.5711 21.0056V21.0056C20.79 21.7867 19.5237 21.7867 18.7426 21.0056L12.5342 14.7972" stroke="black" stroke-width="1.5" stroke-linecap="round" stroke-linejoin="round"/>
<path d="M7.23261 6.404L5.11129 7.1111L2.98997 3.57557L4.40418 2.16136L7.93971 4.28268L7.23261 6.404ZM7.23261 6.404L10.0628 9.23422" stroke="black" stroke-width="1.5" stroke-linecap="round" stroke-linejoin="round"/>
<path d="M10.5503 11.1067C9.7065 8.95365 9.87147 6.12867 11.611 4.38916C13.3505 2.64964 16.5607 2.26784 18.3285 3.3285L15.2878 6.36917L15.0052 9.48021L18.1162 9.1976L21.1569 6.15692C22.2176 7.92469 21.8358 11.1349 20.0963 12.8744C18.3567 14.614 15.5318 14.7789 13.3788 13.9351" stroke="black" stroke-width="1.5" stroke-linecap="round" stroke-linejoin="round"/>
</svg>
